<svg width="1497" height="292" viewBox="0 0 1497 292" fill="none" xmlns="http://www.w3.org/2000/svg">
<g clip-path="url(#clip0_20_58)">
<path d="M652.17 176V155.12H660.9C662.36 155.12 663.62 155.39 664.68 155.93C665.9 156.55 666.87 157.44 667.59 158.6C668.31 159.74 668.67 161 668.67 162.38C668.67 163.76 668.31 165.03 667.59 166.19C666.89 167.35 665.93 168.24 664.71 168.86C663.67 169.4 662.4 169.67 660.9 169.67H657.63V176H652.17ZM689.947 176H673.897V155.12H682.027C683.767 155.12 685.187 155.43 686.287 156.05C687.367 156.65 688.207 157.47 688.807 158.51C689.407 159.55 689.707 160.7 689.707 161.96C689.707 163.52 689.227 164.92 688.267 166.16C687.307 167.38 686.097 168.19 684.637 168.59L689.947 176ZM675.787 156.23L683.947 167.63C685.287 167.35 686.397 166.68 687.277 165.62C688.157 164.56 688.597 163.34 688.597 161.96C688.597 160.86 688.327 159.86 687.787 158.96C687.247 158.06 686.487 157.37 685.507 156.89C684.627 156.45 683.477 156.23 682.057 156.23H675.787ZM675.007 156.95V167.72H682.717L675.007 156.95ZM675.007 174.89H687.847L683.467 168.8L682.537 168.83H675.007V174.89ZM694.814 163.25C694.814 161.69 695.204 160.24 695.984 158.9C696.764 157.56 697.814 156.5 699.134 155.72C700.474 154.94 701.934 154.55 703.514 154.55C705.094 154.55 706.544 154.94 707.864 155.72C709.204 156.5 710.264 157.56 711.044 158.9C711.824 160.24 712.214 161.69 712.214 163.25V167.87C712.214 169.43 711.824 170.88 711.044 172.22C710.264 173.56 709.204 174.62 707.864 175.4C706.544 176.18 705.094 176.57 703.514 176.57C701.934 176.57 700.474 176.18 699.134 175.4C697.814 174.62 696.764 173.56 695.984 172.22C695.204 170.88 694.814 169.43 694.814 167.87V163.25ZM700.274 167.87C700.274 168.83 700.574 169.65 701.174 170.33C701.774 171.01 702.554 171.35 703.514 171.35C704.454 171.35 705.224 171.01 705.824 170.33C706.424 169.65 706.724 168.83 706.724 167.87V163.22C706.724 162.24 706.424 161.42 705.824 160.76C705.224 160.1 704.454 159.77 703.514 159.77C702.554 159.77 701.774 160.1 701.174 160.76C700.574 161.42 700.274 162.24 700.274 163.22V167.87ZM716.811 155.12H734.631L726.291 167.45V176H725.181V167.45L716.811 155.12ZM740.428 155.12H755.638V160.4H745.888V163.04H753.988V168.05H745.888V170.72H755.638V176H740.428V155.12ZM778.745 168.11C778.765 170.73 778.015 172.78 776.495 174.26C774.975 175.72 772.885 176.45 770.225 176.45C768.645 176.45 767.185 176.09 765.845 175.37C764.525 174.65 763.475 173.63 762.695 172.31C761.915 170.99 761.525 169.47 761.525 167.75V163.37C761.525 161.67 761.895 160.16 762.635 158.84C763.395 157.52 764.425 156.5 765.725 155.78C767.045 155.04 768.515 154.67 770.135 154.67C772.795 154.67 774.875 155.4 776.375 156.86C777.895 158.3 778.665 160.34 778.685 162.98H773.285C773.265 161.96 772.985 161.17 772.445 160.61C771.925 160.05 771.155 159.77 770.135 159.77C769.215 159.77 768.455 160.06 767.855 160.64C767.255 161.22 766.955 162.04 766.955 163.1V167.99C766.955 169.05 767.265 169.88 767.885 170.48C768.525 171.06 769.305 171.35 770.225 171.35C772.325 171.35 773.375 170.27 773.375 168.11H778.745ZM791.802 176V160.4H783.912V155.12H800.772V160.4H792.882V176H791.802ZM805.849 163.25C805.849 161.69 806.239 160.24 807.019 158.9C807.799 157.56 808.849 156.5 810.169 155.72C811.509 154.94 812.969 154.55 814.549 154.55C816.129 154.55 817.579 154.94 818.899 155.72C820.239 156.5 821.299 157.56 822.079 158.9C822.859 160.24 823.249 161.69 823.249 163.25V167.87C823.249 169.43 822.859 170.88 822.079 172.22C821.299 173.56 820.239 174.62 818.899 175.4C817.579 176.18 816.129 176.57 814.549 176.57C812.969 176.57 811.509 176.18 810.169 175.4C808.849 174.62 807.799 173.56 807.019 172.22C806.239 170.88 805.849 169.43 805.849 167.87V163.25ZM811.309 167.87C811.309 168.83 811.609 169.65 812.209 170.33C812.809 171.01 813.589 171.35 814.549 171.35C815.489 171.35 816.259 171.01 816.859 170.33C817.459 169.65 817.759 168.83 817.759 167.87V163.22C817.759 162.24 817.459 161.42 816.859 160.76C816.259 160.1 815.489 159.77 814.549 159.77C813.589 159.77 812.809 160.1 812.209 160.76C811.609 161.42 811.309 162.24 811.309 163.22V167.87ZM836.906 176.54C834.006 176.54 831.766 175.86 830.186 174.5C828.626 173.12 827.856 171.06 827.876 168.32H832.766C832.746 169.46 833.086 170.33 833.786 170.93C834.486 171.53 835.466 171.83 836.726 171.83C837.766 171.83 838.586 171.66 839.186 171.32C839.786 170.98 840.086 170.46 840.086 169.76C840.086 169.18 839.776 168.76 839.156 168.5C838.556 168.24 837.956 168.06 837.356 167.96C836.756 167.84 836.386 167.77 836.246 167.75C834.706 167.45 833.376 167.09 832.256 166.67C831.136 166.23 830.196 165.57 829.436 164.69C828.676 163.81 828.296 162.65 828.296 161.21C828.296 159.77 828.676 158.55 829.436 157.55C830.196 156.53 831.206 155.77 832.466 155.27C833.746 154.77 835.136 154.52 836.636 154.52C838.456 154.52 840.026 154.86 841.346 155.54C842.686 156.22 843.736 157.25 844.496 158.63C844.876 159.29 845.106 159.93 845.186 160.55C845.266 161.15 845.306 161.74 845.306 162.32H840.416C840.416 161.24 840.126 160.45 839.546 159.95C838.966 159.43 838.066 159.17 836.846 159.17C835.866 159.17 835.106 159.34 834.566 159.68C834.026 160.02 833.756 160.48 833.756 161.06C833.756 161.7 834.116 162.17 834.836 162.47C835.556 162.77 836.466 163.04 837.566 163.28C839.366 163.64 840.766 163.99 841.766 164.33C842.786 164.65 843.666 165.23 844.406 166.07C845.146 166.91 845.516 168.09 845.516 169.61C845.516 171.05 845.116 172.29 844.316 173.33C843.516 174.37 842.456 175.17 841.136 175.73C839.836 176.27 838.426 176.54 836.906 176.54Z" fill="#C62C72"/>
<path d="M10.632 58.264H22.152L92.136 182.104L161.832 58.264H172.488V258.712H10.632V58.264ZM21.288 248.344H161.832V79.864L97.032 193.912H86.952L21.288 78.136V248.344ZM369.836 58.552V69.208H309.932V248.344H369.836V259H239.948V248.344H299.564V69.208H239.948V58.552H369.836ZM1079.45 258.712V58.264H1090.68L1230.65 194.488V58.264H1241.31V258.712H1079.45ZM1365.21 58.552H1376.45L1458.81 259H1447.29L1420.22 192.76H1321.44L1294.08 259H1282.85L1365.21 58.552ZM1325.76 182.392H1415.9L1370.69 72.376L1325.76 182.392Z" fill="#4B6398"/>
</g>
<defs>
<clipPath id="clip0_20_58">
<rect width="1512" height="316" fill="white" transform="translate(0 -24)"/>
</clipPath>
</defs>
</svg>
